<svg width="283" height="92" viewBox="0 0 283 92" fill="none" xmlns="http://www.w3.org/2000/svg">
<g clip-path="url(#clip0_189_1017)">
<path fill-rule="evenodd" clip-rule="evenodd" d="M266.56 84.3002L257.89 73.3002H255.18V91.0002H258.52V79.0002L267.83 91.0002H269.9V73.3102H266.56V84.3002ZM234.15 76.0002C238.32 76.0002 239.99 79.3402 239.94 82.3302C239.89 85.3202 238.32 88.3302 234.15 88.3302C229.98 88.3302 228.41 85.2202 228.34 82.3302C228.27 79.4402 230 76.0002 234.15 76.0002ZM234.15 73.0002C228.03 73.0002 225.05 77.6802 225.05 82.3302C225.05 86.9802 227.93 91.4602 234.15 91.4602C240.37 91.4602 243.15 86.8802 243.23 82.3002C243.31 77.7202 240.25 73.0002 234.15 73.0002ZM212.92 91.0002V73.3102H209.6V91.0002H212.92ZM189.36 91.0002H192.7V76.3402H198.31V73.3402H183.74V76.3402H189.36V91.0002ZM170.45 84.5602H163.87L167.16 77.0002L170.45 84.5602ZM173.28 91.0002H176.92L169 73.3102H165.36L157.4 91.0002H161L162.51 87.6702H171.77L173.28 91.0002ZM135.28 76.4402H138.92C142.77 76.4402 144.38 79.2002 144.46 81.9602C144.54 84.7202 142.94 87.7902 138.92 87.7902H135.28V76.4402ZM138.92 73.2802H132V91.0002H138.95C145.15 91.0002 147.88 86.4802 147.8 82.0002C147.72 77.5202 145 73.3102 138.92 73.3102V73.2802ZM116.55 84.2802L107.88 73.2802H105.17V91.0002H108.51V79.0002L117.81 91.0002H119.89V73.3102H116.55V84.2802ZM89.09 73.3402V83.5002C89.09 86.5002 87.53 88.3802 84.77 88.3802C82.01 88.3802 80.19 86.6902 80.19 83.5002V73.3602H76.88V83.5002C76.88 88.8302 80.5 91.4102 84.74 91.4102C89.19 91.4102 92.41 88.7302 92.41 83.5002V73.3602L89.09 73.3402ZM56.09 75.9902C60.26 75.9902 61.93 79.3302 61.88 82.3202C61.83 85.3102 60.26 88.3202 56.09 88.3202C51.92 88.3202 50.35 85.2102 50.27 82.3202C50.19 79.4302 51.93 76.0002 56.1 76.0002L56.09 75.9902ZM56.09 72.9902C49.97 72.9902 46.99 77.6702 46.99 82.3202C46.99 86.9702 49.87 91.4502 56.09 91.4502C62.31 91.4502 65.09 86.8702 65.17 82.2902C65.25 77.7102 62.19 73.0002 56.1 73.0002L56.09 72.9902ZM26.32 91.0002V84.4602H35.19V81.4002H26.32V76.5702H35.7V73.3602H23V91.0002H26.32Z" fill="#F79422"/>
<path fill-rule="evenodd" clip-rule="evenodd" d="M270.23 54.75H248.06V45.84H269.44V38.9H248.06V29.76H270.23V22.54H240.67V62.08H270.23V54.75ZM230.23 29.09C227.23 22.99 220.87 21.25 214.72 21.25C207.44 21.25 199.43 24.63 199.43 32.75C199.43 41.61 206.88 43.75 214.94 44.75C220.19 45.31 224.08 46.84 224.08 50.56C224.08 54.85 219.68 56.48 215 56.48C210.32 56.48 205.64 54.56 203.89 50.22L197.68 53.44C200.62 60.66 206.82 63.14 214.89 63.14C223.69 63.14 231.47 59.36 231.47 50.56C231.47 41.14 223.8 39 215.56 37.98C210.83 37.42 206.77 36.46 206.77 32.98C206.77 30.05 209.42 27.73 214.94 27.73C219.23 27.73 222.94 29.88 224.31 32.13L230.23 29.09ZM176.89 22.54C170.68 22.49 164.48 22.54 158.27 22.54V62.08H165.72V50.46H176.89C196.25 50.46 196.2 22.54 176.91 22.54H176.89ZM165.72 29.65H176.89C186.36 29.65 186.42 43.65 176.89 43.65H165.74L165.72 29.65ZM147.72 62.08V22.54H140.33V62.08H147.72ZM103.72 22.54V62.08H131.47V55.2H111.22V22.54H103.72ZM91.55 52C88.8722 54.5462 85.325 55.9765 81.63 56C71.87 56 68.09 49.18 68.03 42.63C67.97 36.08 72.09 28.93 81.63 28.93C85.1705 28.8782 88.5909 30.2133 91.16 32.65L96.16 27.86C92.3256 24.0044 87.1076 21.8438 81.67 21.86C67.4 21.86 60.67 32.35 60.74 42.67C60.81 52.99 67 63 81.63 63C87.2148 63.1339 92.6194 61.019 96.63 57.13L91.55 52ZM52.55 54.76H30.37V45.84H51.75V38.9H30.37V29.76H52.54V22.54H23V62.08H52.56L52.55 54.76Z" fill="#E4E6F0"/>
<path fill-rule="evenodd" clip-rule="evenodd" d="M10.66 18.5202C19.66 4.42023 37.81 -0.479765 52.91 6.27023L51.91 5.58023C36.493 -4.30567 15.9809 0.178205 6.09501 15.5952C-3.79089 31.0122 0.692975 51.5243 16.11 61.4102L17.16 62.0402C4.69001 51.1402 1.61 32.6302 10.66 18.5202Z" fill="#F79422"/>
<path fill-rule="evenodd" clip-rule="evenodd" d="M273 26.4101C273 23.8806 275.051 21.8301 277.58 21.8301C280.109 21.8301 282.16 23.8806 282.16 26.4101C282.16 28.9395 280.109 30.9901 277.58 30.9901C275.051 30.9901 273 28.9395 273 26.4101ZM281.63 26.4101C281.63 24.1733 279.817 22.3601 277.58 22.3601C275.343 22.3601 273.53 24.1733 273.53 26.4101C273.508 27.4935 273.927 28.5393 274.69 29.3084C275.454 30.0774 276.496 30.5038 277.58 30.4901C278.67 30.4955 279.716 30.0636 280.485 29.291C281.254 28.5185 281.681 27.4699 281.67 26.3801L281.63 26.4101ZM275.69 23.9401H278C279.11 23.9401 279.92 24.4401 279.92 25.5201C279.952 26.2089 279.497 26.8261 278.83 27.0001L280 28.6701H278.61L277.61 27.1701H276.87V28.6701H275.72L275.69 23.9401ZM277.84 26.2501C278.37 26.2501 278.66 25.9901 278.66 25.6001C278.66 25.2101 278.34 24.9401 277.84 24.9401H276.84V26.2501H277.84Z" fill="#E4E6F0"/>
</g>
<defs>
<clipPath id="clip0_189_1017">
<rect width="283" height="92" fill="white"/>
</clipPath>
</defs>
</svg>
