<svg width="362" height="366" viewBox="0 0 362 366" fill="none" xmlns="http://www.w3.org/2000/svg">
<mask id="mask0_4_6" style="mask-type:luminance" maskUnits="userSpaceOnUse" x="0" y="0" width="362" height="366">
<path d="M0 0.000183105H361.333V365.333H0V0.000183105Z" fill="white"/>
</mask>
<g mask="url(#mask0_4_6)">
<path fill-rule="evenodd" clip-rule="evenodd" d="M339.454 186.797C339.454 98.7881 268.11 27.4427 180.1 27.4427C92.0903 27.4427 20.7383 98.7881 20.7383 186.797C20.7383 274.807 92.0903 346.149 180.1 346.149C268.11 346.149 339.454 274.807 339.454 186.797Z" fill="white"/>
<path d="M339.454 186.797C339.454 98.7881 268.11 27.4427 180.1 27.4427C92.0903 27.4427 20.7383 98.7881 20.7383 186.797C20.7383 274.807 92.0903 346.149 180.1 346.149C268.11 346.149 339.454 274.807 339.454 186.797Z" stroke="#221F1F" stroke-width="2.66667" stroke-miterlimit="2.613" stroke-linecap="round" stroke-linejoin="round"/>
<path fill-rule="evenodd" clip-rule="evenodd" d="M335.609 186.797C335.609 100.908 265.984 31.2853 180.1 31.2853C94.212 31.2853 24.584 100.908 24.584 186.797C24.584 272.683 94.212 342.307 180.1 342.307C265.984 342.307 335.609 272.683 335.609 186.797Z" fill="black"/>
<path fill-rule="evenodd" clip-rule="evenodd" d="M100.892 106.882C99.7347 108.328 98.5813 109.772 97.4267 111.216C94.252 115.182 91.0693 119.15 87.8933 123.117C87.88 123.133 87.7947 123.268 87.772 123.25C87.6093 123.12 87.4453 122.99 87.2813 122.858C86.416 122.165 85.556 121.476 84.6907 120.784C83.192 119.584 81.6933 118.382 80.196 117.186C83.0773 113.586 85.9573 109.988 88.8386 106.388C90.2427 104.634 91.6453 102.88 93.048 101.129C94.0533 99.8716 95.3213 98.9809 96.9907 98.9276C98.9933 98.8622 100.737 100.032 101.588 101.805C102.3 103.526 102.06 105.424 100.892 106.882ZM73.8707 112.121C72.044 110.657 70.2133 109.192 68.3867 107.73C67.688 107.172 66.9933 106.612 66.2933 106.054C66.276 106.037 67.0093 105.136 67.0627 105.077C70.468 100.822 73.876 96.5636 77.2813 92.3102C78.1787 91.1876 78.984 89.9916 80.364 89.4209C82.248 88.6449 84.46 89.1422 85.828 90.6449C86.9307 91.8636 87.2947 93.5196 86.94 95.1049C86.5333 96.5142 85.536 97.5516 84.6387 98.6702C82.8467 100.909 81.052 103.152 79.26 105.39C77.464 107.636 75.668 109.881 73.8707 112.121ZM112.8 99.3862C112.205 95.2329 109.703 91.7436 105.864 89.9969C102.013 88.2476 97.5373 88.9062 94.1427 91.3089C93.8653 91.5076 93.6093 91.7436 93.348 91.9556C93.9093 90.0329 94.0826 88.0956 93.6026 86.1262C93.1373 84.2076 92.128 82.4356 90.7133 81.0556C87.8333 78.2462 83.4653 77.3222 79.6893 78.7342C77.9133 79.3969 76.3307 80.5369 75.144 82.0196C74.4707 82.8596 73.796 83.7036 73.1227 84.5489C69.596 88.9502 66.076 93.3489 62.5547 97.7502C59.5267 101.528 56.5027 105.305 53.4787 109.082C53.2787 109.332 53.0827 109.582 52.8813 109.832C52.8653 109.846 53.2693 110.153 53.2973 110.174C54.472 111.116 55.6453 112.053 56.8173 112.994C61.256 116.548 65.696 120.101 70.136 123.657C74.5253 127.176 78.9227 130.694 83.3213 134.216C84.4427 135.11 85.5587 136.006 86.684 136.904C86.7293 136.944 86.9907 137.205 87.0373 137.15C87.2587 136.869 87.4813 136.592 87.7013 136.317C90.7187 132.545 93.736 128.778 96.752 125.012C100.368 120.497 103.983 115.982 107.599 111.466C109.465 109.136 111.528 106.938 112.415 104.016C112.869 102.512 112.944 100.94 112.8 99.3862Z" fill="white"/>
<path fill-rule="evenodd" clip-rule="evenodd" d="M277.294 186.798C277.294 133.116 233.777 89.6028 180.1 89.6028C126.42 89.6028 82.9023 133.116 82.9023 186.798C82.9023 240.476 126.42 283.992 180.1 283.992C233.777 283.992 277.294 240.476 277.294 186.798Z" fill="white"/>
<path fill-rule="evenodd" clip-rule="evenodd" d="M180.096 94.5279C129.727 95.8359 89.1336 136.428 87.8296 186.796H180.096V94.5279Z" fill="#0499DB"/>
<path fill-rule="evenodd" clip-rule="evenodd" d="M180.096 279.069C230.472 277.758 271.06 237.168 272.371 186.796H180.096V279.069Z" fill="#0499DB"/>
<path fill-rule="evenodd" clip-rule="evenodd" d="M283.781 80.4351L275.681 72.9111L249.385 107.456L257.483 114.975L286.321 101.75L267.104 126.992L272.676 136.544L312.132 118.436L306.565 108.888L283.793 119.335L299.98 98.0751L292.895 89.2244L268.608 100.366L283.781 80.4351Z" fill="white"/>
<path fill-rule="evenodd" clip-rule="evenodd" d="M165.792 53.9596L176.048 83.1196H184.149L194.405 53.9596L195.486 83.1196L206.828 84.7383L205.206 41.0023L190.628 39.3796L180.1 70.1596L169.566 39.3796L154.986 41.0023L153.369 84.7383L164.712 83.1196L165.792 53.9596Z" fill="white"/>
</g>
</svg>
